<svg width="640" height="400" viewBox="0 0 640 400" fill="none" xmlns="http://www.w3.org/2000/svg">
  <rect width="640" height="400" rx="24" fill="#0B0F14"/>
  <rect x="22" y="22" width="596" height="356" rx="20" fill="#141A22" stroke="#2F3948" stroke-width="2"/>
  <rect x="48" y="278" width="544" height="68" rx="18" fill="#1B232C"/>
  <path d="M320 112C280 170 246 188 214 234C184 276 174 310 174 332H232C232 300 252 256 288 212C316 176 332 156 352 112H320Z" fill="#FF8A00"/>
  <path d="M352 124C388 176 410 206 438 254C462 296 472 320 472 338H410C410 308 394 270 356 220C332 186 318 160 304 122L352 124Z" fill="#FF5A1F"/>
  <path d="M300 100C314 82 328 70 344 64C330 84 322 92 314 112C310 122 300 126 292 120C286 114 286 104 300 100Z" fill="#FFD04D"/>
  <path d="M370 96C382 86 400 84 422 90C404 102 394 110 386 126C382 134 372 132 366 124C358 114 360 106 370 96Z" fill="#FFCC33"/>
  <path d="M240 84C248 72 260 64 276 60C264 78 258 88 252 106C248 116 236 116 230 106C224 98 228 90 240 84Z" fill="#FFC04A"/>
  <path d="M126 108C154 78 180 54 214 48C186 76 170 94 160 128C156 142 142 142 132 132C126 124 124 116 126 108Z" fill="#8A5A2B" fill-opacity="0.55"/>
  <path d="M486 108C518 84 540 60 560 48C534 76 518 94 508 128C504 142 490 142 480 132C474 124 472 116 486 108Z" fill="#8A5A2B" fill-opacity="0.55"/>
  <path d="M226 236C258 214 282 204 320 204C358 204 386 214 430 250C398 258 358 266 320 266C282 266 244 258 226 236Z" fill="#4C2E1D" fill-opacity="0.65"/>
  <path d="M132 250C180 238 232 224 278 224C322 224 352 232 402 258C360 270 322 278 278 278C232 278 182 270 132 250Z" fill="#6D3D24" fill-opacity="0.55"/>
  <path d="M224 314C250 292 278 282 316 280C352 278 382 284 420 306" stroke="#FF9333" stroke-width="8" stroke-linecap="round" stroke-opacity="0.5"/>
  <circle cx="506" cy="100" r="44" fill="#FFB347" fill-opacity="0.15"/>
  <circle cx="514" cy="92" r="24" fill="#FFD27A" fill-opacity="0.18"/>
  <circle cx="120" cy="334" r="56" fill="#FF6B3D" fill-opacity="0.15"/>
</svg>
